<svg width="112" height="18" viewBox="0 0 112 18" fill="none" xmlns="http://www.w3.org/2000/svg">
<path d="M64.9946 15.3218L65.4714 14.7391C65.9481 15.2159 66.5837 15.5337 67.3253 15.5337C68.1728 15.5337 68.7025 15.1099 68.7025 14.5273C68.7025 13.8387 68.2257 13.6798 67.5901 13.4149L66.6896 12.9912C66.054 12.7263 65.3124 12.3026 65.3124 11.3491C65.3124 10.3957 66.1599 9.65411 67.3782 9.65411C68.1728 9.65411 68.8614 9.97193 69.3381 10.4486L68.9143 10.9783C68.4906 10.6076 68.0139 10.3957 67.3782 10.3957C66.6367 10.3957 66.1599 10.7665 66.1599 11.2962C66.1599 11.8788 66.7426 12.1437 67.2723 12.3555L68.1728 12.7263C68.9673 13.0441 69.55 13.4679 69.55 14.4213C69.55 15.4277 68.7025 16.2223 67.3253 16.2223C66.4248 16.2223 65.5773 15.8515 65.0476 15.2688L64.9946 15.3218Z" fill="#272427"/>
<path d="M73.8933 9.76019H77.813V10.4488H74.6878V12.4086H77.3363V13.0972H74.6878V15.3749H77.866V16.0635H73.8403V9.76019H73.8933Z" fill="#272427"/>
<path d="M82.2095 9.76019H84.1693C85.4406 9.76019 86.394 10.2369 86.394 11.5611C86.394 12.8854 85.4406 13.415 84.1693 13.415H83.004V16.0635H82.2095V9.76019ZM84.0634 12.7794C85.0698 12.7794 85.5995 12.3557 85.5995 11.5611C85.5995 10.7666 85.0698 10.4488 84.0634 10.4488H83.004V12.7794H84.0634ZM84.646 12.7794L86.5529 16.1165H85.6525L84.0104 13.2032L84.646 12.7794Z" fill="#272427"/>
<path d="M90.1025 9.76019H90.95L91.9564 13.1502C92.1683 13.8918 92.3272 14.4744 92.5391 15.216C92.751 14.4744 92.9099 13.8918 93.1217 13.1502L94.1282 9.76019H94.9757L92.9628 16.0635H92.0094L89.9966 9.76019H90.1025Z" fill="#272427"/>
<path d="M99.1589 9.76019H103.079V10.4488H99.9535V12.4086H102.602V13.0972H99.9535V15.3749H103.132V16.0635H99.106V9.76019H99.1589Z" fill="#272427"/>
<path d="M106.682 15.3218L107.159 14.7391C107.636 15.2159 108.271 15.5337 109.013 15.5337C109.86 15.5337 110.39 15.1099 110.39 14.5273C110.39 13.8387 109.913 13.6798 109.278 13.4149L108.377 12.9912C107.742 12.7263 107 12.3026 107 11.3491C107 10.3957 107.847 9.65411 109.066 9.65411C109.86 9.65411 110.549 9.97193 111.026 10.4486L110.602 10.9783C110.178 10.6076 109.701 10.3957 109.066 10.3957C108.324 10.3957 107.847 10.7665 107.847 11.2962C107.847 11.8788 108.43 12.1437 108.96 12.3555L109.86 12.7263C110.655 13.0441 111.237 13.4679 111.237 14.4213C111.237 15.4277 110.39 16.2223 109.013 16.2223C108.112 16.2223 107.265 15.8515 106.735 15.2688L106.682 15.3218Z" fill="#272427"/>
<path d="M0.0831982 17.2223C0.0370445 17.2223 0 17.1852 0 17.139V1.06912C0 1.02291 0.0370445 0.985809 0.0831982 0.985809H7.01294C7.0591 0.985809 7.09614 1.02291 7.09614 1.06912V3.57463C7.09614 3.62084 7.0591 3.65793 7.01294 3.65793H3.27752C3.23138 3.65793 3.19433 3.69504 3.19433 3.74124V7.50193C3.19433 7.54815 3.23138 7.58523 3.27752 7.58523H6.2836C6.32974 7.58523 6.3668 7.62234 6.3668 7.66856V9.97214C6.3668 10.0184 6.32974 10.0555 6.2836 10.0555H3.27752C3.23138 10.0555 3.19433 10.0926 3.19433 10.1388V17.1384C3.19433 17.1846 3.15728 17.2217 3.11113 17.2217H0.0831982V17.2223Z" fill="#1C1B1B"/>
<path d="M12.276 17.6474C8.49561 17.6474 7.26221 15.2787 7.26221 10.6022V7.60591C7.26221 2.92939 8.49561 0.56073 12.276 0.56073C16.0563 0.56073 17.3098 2.92939 17.3098 7.60591V10.6022C17.3098 15.2787 16.0764 17.6474 12.276 17.6474ZM12.276 2.90934C11.0426 2.90934 10.598 4.08362 10.598 6.91811V11.3721C10.598 14.1251 11.0426 15.2994 12.276 15.2994C13.5094 15.2994 13.9745 14.1251 13.9745 11.3721V6.91811C13.9745 4.08424 13.53 2.90934 12.276 2.90934Z" fill="#1C1B1B"/>
<path d="M21.3295 17.2223H18.3016C18.2554 17.2223 18.2183 17.1852 18.2183 17.139V1.06912C18.2183 1.02291 18.2554 0.985809 18.3016 0.985809H24.2432C26.6694 0.985809 28.1651 2.62533 28.1651 5.43975C28.1651 7.51166 27.3434 8.91644 25.9297 9.50145C25.8902 9.51787 25.869 9.56044 25.8811 9.60119L28.0533 17.1158C28.0685 17.1694 28.029 17.2223 27.9737 17.2223H24.8123C24.7746 17.2223 24.7418 17.1973 24.7321 17.1609L22.7438 9.87363C22.7342 9.83714 22.7014 9.81221 22.6637 9.81221H21.4965C21.4503 9.81221 21.4132 9.8493 21.4132 9.89552V17.139C21.4132 17.1852 21.3762 17.2223 21.33 17.2223H21.3295ZM21.4127 3.37698V7.40159C21.4127 7.44781 21.4498 7.4849 21.4958 7.4849H23.192C24.4054 7.4849 24.8292 6.45289 24.8292 5.37954C24.8292 4.3062 24.4048 3.29427 23.192 3.29427H21.4958C21.4498 3.29427 21.4127 3.33137 21.4127 3.37759V3.37698Z" fill="#1C1B1B"/>
<path d="M33.6238 17.6474C30.1066 17.6474 28.6709 15.4812 28.6709 10.7846V7.42409C28.6709 2.74757 30.1066 0.56134 33.7253 0.56134C36.5923 0.56134 38.187 1.93571 38.5483 5.31509C38.5532 5.36131 38.5193 5.40387 38.4731 5.40813L35.405 5.71037C35.3583 5.71525 35.3177 5.67876 35.3146 5.63254C35.1713 3.58618 34.5748 2.90994 33.726 2.90994C32.634 2.90994 32.0073 3.9018 32.0073 6.75637V11.5545C32.0073 14.3483 32.6139 15.3 33.6651 15.3C34.7772 15.3 35.5248 14.2473 35.5248 11.231V10.1406C35.5248 10.0944 35.4876 10.0573 35.4416 10.0573H33.8693C33.8231 10.0573 33.786 10.0202 33.786 9.97398V7.67038C33.786 7.62417 33.8231 7.58706 33.8693 7.58706H38.6358C38.682 7.58706 38.719 7.62417 38.719 7.67038V12.519C38.719 14.8512 37.4322 17.648 33.6246 17.648L33.6238 17.6474Z" fill="#1C1B1B"/>
<path d="M39.8307 17.2223C39.7845 17.2223 39.7476 17.1852 39.7476 17.139V1.06912C39.7476 1.02291 39.7845 0.985809 39.8307 0.985809H47.1649C47.2111 0.985809 47.2481 1.02291 47.2481 1.06912V3.57463C47.2481 3.62084 47.2111 3.65793 47.1649 3.65793H43.0249C42.9789 3.65793 42.9418 3.69504 42.9418 3.74124V7.50193C42.9418 7.54815 42.9789 7.58523 43.0249 7.58523H46.3766C46.4228 7.58523 46.4597 7.62234 46.4597 7.66856V9.97214C46.4597 10.0184 46.4228 10.0555 46.3766 10.0555H43.0249C42.9789 10.0555 42.9418 10.0926 42.9418 10.1388V14.4662C42.9418 14.5124 42.9789 14.5495 43.0249 14.5495H47.1649C47.2111 14.5495 47.2481 14.5866 47.2481 14.6329V17.139C47.2481 17.1852 47.2111 17.2223 47.1649 17.2223H39.8307Z" fill="#1C1B1B"/>
<path d="M48.0361 1.06912C48.0361 1.02291 48.0731 0.985809 48.1193 0.985809H53.2728C55.618 0.985809 57.882 2.28173 57.882 9.16516C57.882 15.6636 55.941 17.2223 53.3328 17.2223H48.1193C48.0731 17.2223 48.0361 17.1852 48.0361 17.139V1.06912ZM51.2303 14.9321C51.2303 14.9783 51.2675 15.0154 51.3135 15.0154H52.7468C53.7779 15.0154 54.5061 13.5176 54.5061 9.14449C54.5061 4.5081 53.6978 3.21279 52.7068 3.21279H51.3142C51.268 3.21279 51.2311 3.24988 51.2311 3.2961V14.9321H51.2303Z" fill="#1C1B1B"/>
</svg>
