<?xml version="1.0" standalone="no"?>
<!DOCTYPE svg PUBLIC "-//W3C//DTD SVG 20010904//EN"
 "http://www.w3.org/TR/2001/REC-SVG-20010904/DTD/svg10.dtd">
<svg version="1.0" xmlns="http://www.w3.org/2000/svg"
 width="880.000000pt" height="880.000000pt" viewBox="0 0 880.000000 880.000000"
 preserveAspectRatio="xMidYMid meet">
<metadata>
Created by potrace 1.14, written by Peter Selinger 2001-2017
</metadata>
<g transform="translate(0.000000,880.000000) scale(0.100000,-0.100000)"
fill="#000000" stroke="none">
<path d="M3716 8322 c-2 -4 -36 -8 -75 -7 -39 0 -71 -2 -71 -5 0 -3 -19 -6
-43 -6 -95 -3 -157 -9 -157 -16 0 -4 -8 -7 -17 -7 -10 0 -31 -2 -48 -5 -16 -2
-34 -5 -38 -5 -5 -1 -5 -7 -1 -13 5 -10 4 -10 -5 -2 -13 12 -51 7 -51 -6 0 -4
-11 -6 -24 -5 -13 2 -37 -4 -53 -12 -15 -8 -29 -14 -30 -14 -21 6 -34 -2 -29
-15 5 -14 4 -15 -9 -4 -12 10 -22 9 -51 -5 -20 -9 -42 -18 -48 -19 -6 -1 -21
-7 -32 -14 -12 -6 -25 -8 -29 -4 -5 4 -6 0 -3 -9 5 -12 1 -15 -18 -11 -18 3
-24 0 -24 -14 0 -15 -2 -16 -9 -5 -8 12 -12 12 -26 -3 -10 -9 -30 -20 -46 -23
-16 -3 -27 -9 -24 -13 3 -4 -7 -11 -20 -14 -17 -4 -23 -11 -19 -19 4 -7 4 -9
-1 -5 -4 4 -17 2 -29 -4 -11 -7 -24 -11 -28 -10 -5 1 -8 -3 -8 -8 0 -6 -7 -10
-16 -10 -9 0 -12 -5 -8 -12 4 -6 3 -8 -4 -4 -6 3 -17 -1 -25 -9 -9 -8 -19 -15
-22 -15 -18 0 -65 -43 -59 -53 4 -7 4 -9 -1 -5 -9 8 -65 -22 -65 -34 0 -4 -7
-8 -16 -8 -8 0 -13 -4 -10 -8 3 -5 -8 -16 -25 -26 -16 -9 -27 -21 -24 -27 4
-5 -2 -6 -11 -2 -14 5 -16 3 -11 -11 4 -9 3 -15 -2 -12 -10 7 -77 -53 -74 -66
2 -4 -3 -7 -10 -5 -6 1 -11 -6 -11 -15 1 -9 -4 -14 -11 -12 -6 3 -31 -20 -55
-51 -23 -30 -46 -55 -51 -55 -5 0 -9 -6 -9 -14 0 -8 -7 -17 -16 -20 -8 -3 -12
-10 -9 -16 3 -5 -1 -10 -9 -10 -9 0 -15 -4 -14 -9 2 -5 -6 -17 -17 -26 -11 -9
-13 -14 -5 -10 10 4 9 2 -3 -8 -9 -8 -17 -19 -17 -26 0 -6 -5 -11 -11 -11 -6
0 -9 -7 -6 -15 4 -8 1 -17 -5 -21 -7 -5 -8 -2 -4 7 4 8 0 5 -8 -6 -9 -11 -14
-25 -12 -32 3 -6 0 -10 -7 -8 -12 5 -60 -82 -60 -109 0 -8 -4 -13 -9 -10 -4 3
-8 0 -8 -6 0 -6 -4 -8 -10 -5 -5 3 -7 0 -4 -8 3 -8 0 -18 -5 -22 -6 -3 -9 -11
-6 -16 4 -5 1 -9 -4 -9 -6 0 -11 -9 -11 -20 0 -11 -5 -20 -11 -20 -6 0 -9 -9
-6 -20 3 -11 2 -18 -3 -15 -8 5 -43 -79 -43 -102 0 -7 -5 -13 -10 -13 -5 0 -7
-7 -3 -15 3 -8 1 -15 -4 -15 -6 0 -10 -9 -10 -20 0 -11 -4 -20 -8 -20 -7 0
-13 -27 -15 -73 -1 -10 -6 -16 -12 -14 -5 3 -10 -7 -11 -22 -2 -45 -8 -81 -14
-81 -3 0 -7 -12 -8 -26 -1 -14 -5 -31 -9 -37 -4 -7 -8 -16 -9 -22 -1 -5 -7
-30 -14 -55 -7 -25 -14 -52 -15 -60 -2 -8 -9 -30 -14 -49 -6 -19 -8 -38 -5
-42 3 -5 2 -9 -3 -9 -4 0 -13 -16 -19 -35 -8 -25 -8 -35 0 -35 6 0 4 -5 -4
-10 -13 -8 -13 -10 -1 -10 11 0 9 -4 -5 -15 -10 -8 -15 -15 -11 -15 4 0 3 -8
-2 -18 -7 -13 -6 -23 2 -31 9 -10 8 -11 -5 -6 -12 5 -16 2 -14 -12 2 -10 0
-25 -5 -34 -9 -18 -20 -64 -22 -91 -1 -10 -4 -18 -8 -18 -4 0 -10 -7 -13 -16
-3 -8 -2 -13 2 -10 5 3 1 -17 -7 -44 -9 -26 -19 -46 -23 -44 -3 2 -4 -5 -1
-16 3 -11 1 -26 -5 -33 -5 -6 -8 -20 -7 -29 2 -10 -1 -18 -7 -18 -6 0 -4 -7 3
-17 12 -14 12 -16 0 -8 -11 6 -13 2 -9 -18 3 -15 1 -24 -3 -21 -8 5 -13 -13
-12 -43 1 -7 -3 -13 -8 -13 -5 0 -9 -5 -9 -11 0 -5 6 -7 13 -3 6 4 4 -2 -7
-14 -10 -12 -16 -28 -13 -37 4 -8 2 -15 -4 -15 -6 0 -8 -4 -4 -9 3 -5 1 -12
-4 -16 -8 -5 -25 -77 -26 -110 0 -5 -4 -13 -8 -16 -4 -3 -9 -17 -11 -30 -1
-13 -7 -33 -13 -44 -8 -14 -8 -26 -2 -38 8 -13 6 -15 -5 -11 -10 4 -15 0 -14
-13 1 -10 -4 -37 -11 -61 -7 -23 -9 -47 -6 -52 3 -6 1 -10 -6 -10 -6 0 -9 -8
-6 -20 3 -10 1 -20 -4 -22 -5 -2 -10 -13 -12 -25 -2 -12 -6 -26 -10 -29 -4 -4
-1 -14 6 -22 9 -13 9 -14 0 -8 -9 5 -13 0 -13 -13 0 -32 -1 -35 -12 -48 -7 -9
-7 -13 2 -13 9 0 9 -4 2 -13 -6 -7 -13 -32 -17 -57 -14 -99 -16 -111 -24 -132
-4 -13 -7 -38 -6 -55 2 -18 0 -33 -3 -33 -4 0 -6 -17 -6 -37 1 -21 -4 -44 -10
-52 -8 -11 -8 -13 1 -8 9 6 11 -2 7 -30 -11 -70 -11 -133 0 -133 8 0 8 -3 0
-8 -15 -10 -25 -40 -14 -47 9 -6 8 -31 -3 -41 -4 -4 1 -13 11 -21 9 -8 11 -12
4 -8 -15 8 -14 -103 2 -124 8 -11 8 -13 -1 -8 -8 5 -11 -4 -10 -33 1 -22 5
-40 9 -40 11 0 5 -23 -7 -32 -7 -5 -7 -8 0 -8 6 0 11 -28 12 -63 2 -54 8 -102
13 -102 1 0 3 -22 5 -50 6 -69 10 -99 16 -110 3 -6 6 -25 8 -44 1 -19 5 -39 9
-45 5 -6 8 -22 7 -36 -1 -14 3 -34 9 -45 5 -11 11 -33 13 -50 5 -46 8 -59 14
-70 8 -13 21 -66 33 -130 1 -5 5 -16 9 -22 5 -7 5 -18 2 -23 -9 -14 8 -12 25
3 8 6 7 3 -3 -9 -9 -11 -14 -24 -10 -28 4 -3 8 -14 9 -23 7 -46 15 -63 27 -56
9 5 9 3 0 -9 -7 -8 -10 -18 -6 -22 4 -3 9 -17 11 -29 2 -12 5 -27 6 -34 1 -7
5 -16 9 -19 4 -4 1 -14 -6 -22 -8 -11 -8 -14 0 -9 7 4 14 0 17 -10 10 -37 20
-88 18 -95 -1 -5 6 -8 16 -8 13 0 14 -2 4 -9 -15 -9 -15 -20 0 -38 5 -7 7 -16
4 -22 -4 -5 -1 -15 6 -23 7 -7 14 -26 16 -43 2 -16 8 -34 13 -40 12 -12 12
-28 0 -20 -5 3 -2 -9 7 -27 9 -18 17 -44 18 -58 1 -14 3 -26 4 -27 1 -2 3 -8
4 -13 0 -6 6 -14 11 -18 6 -4 11 -16 12 -27 1 -18 4 -37 16 -97 2 -10 6 -21
10 -24 4 -4 7 -18 7 -31 0 -12 4 -23 9 -23 5 0 9 -6 8 -12 -1 -44 4 -68 14
-62 7 4 7 -1 -1 -16 -10 -18 -9 -21 1 -15 9 6 11 2 7 -13 -4 -12 -2 -22 2 -22
5 0 12 -17 15 -37 3 -21 10 -46 16 -55 5 -10 9 -29 9 -43 0 -14 4 -25 9 -25 6
0 8 -9 6 -20 -2 -11 0 -22 5 -25 5 -3 7 -12 3 -20 -3 -8 0 -15 7 -15 6 0 10
-8 9 -17 -1 -10 0 -25 4 -33 16 -42 51 -167 50 -178 0 -6 3 -12 8 -12 5 0 9
-9 9 -20 0 -11 5 -20 11 -20 5 0 7 -4 4 -10 -3 -5 1 -20 9 -32 8 -13 16 -27
17 -33 6 -32 22 -64 30 -59 5 3 6 -2 3 -10 -3 -8 6 -32 20 -54 14 -22 22 -43
18 -47 -4 -5 0 -6 9 -2 13 4 16 1 12 -14 -3 -10 0 -19 6 -19 6 0 11 -9 11 -20
0 -11 5 -20 10 -20 6 0 10 -6 10 -13 0 -7 8 -22 18 -33 10 -10 21 -27 25 -36
3 -10 11 -18 17 -18 6 0 8 -4 5 -10 -3 -5 -1 -10 4 -10 6 0 11 -6 11 -14 0 -8
3 -16 8 -18 15 -7 61 -76 54 -83 -4 -3 -2 -5 5 -3 6 1 11 -1 11 -5 1 -15 44
-47 55 -40 6 4 7 1 3 -6 -8 -12 205 -231 224 -231 6 0 15 -9 22 -20 7 -11 16
-20 21 -20 7 0 80 -53 97 -70 3 -3 17 -11 33 -19 15 -8 27 -18 27 -23 0 -4 7
-8 15 -8 8 0 24 -9 35 -20 11 -11 21 -19 23 -19 7 5 47 -14 47 -22 0 -6 4 -8
9 -5 5 4 11 3 13 -1 4 -10 108 -65 108 -58 0 3 10 0 23 -7 12 -7 25 -11 30
-10 4 1 7 -2 7 -8 0 -5 9 -10 19 -10 11 0 23 -5 27 -11 3 -6 15 -8 26 -6 11 3
21 0 25 -9 3 -8 16 -14 29 -14 13 0 24 -5 24 -11 0 -5 4 -8 9 -5 5 4 22 1 38
-5 15 -7 37 -14 48 -16 37 -8 50 -11 53 -13 1 -2 10 -3 20 -4 9 -1 23 -5 30
-9 6 -5 12 -6 12 -2 0 3 8 1 18 -4 13 -7 23 -6 32 2 10 10 11 9 5 -2 -6 -11
-4 -13 8 -8 12 4 17 1 17 -11 0 -14 2 -15 9 -3 8 12 16 13 44 4 26 -8 39 -8
48 1 9 8 10 8 6 0 -5 -8 5 -13 27 -16 19 -2 32 0 30 4 -3 4 6 4 20 -2 14 -5
26 -6 26 -2 0 4 5 0 10 -8 5 -8 10 -10 10 -5 0 6 9 11 20 11 11 0 20 -4 20 -9
0 -4 6 -5 13 0 16 10 37 13 37 5 0 -9 77 -8 86 1 4 4 13 2 21 -4 10 -9 13 -8
13 1 0 9 3 10 13 1 10 -7 17 -7 24 0 8 8 13 8 17 0 5 -8 13 -8 28 0 15 8 19 8
14 0 -10 -15 7 -14 22 1 7 7 12 8 12 2 0 -5 9 -10 20 -10 11 0 20 4 20 9 0 4
5 5 12 1 7 -5 28 -8 48 -7 19 0 41 -4 48 -10 9 -7 11 -5 6 9 -6 15 -4 17 6 7
9 -9 19 -9 33 -2 14 8 18 8 13 0 -10 -15 7 -14 22 1 7 7 12 8 12 2 0 -5 9 -10
20 -10 11 0 20 4 20 9 0 4 5 5 12 1 17 -11 111 -11 126 -1 7 6 12 6 12 -1 0
-13 56 -7 75 8 13 11 14 10 10 -1 -4 -10 3 -14 25 -14 16 -1 30 3 30 7 0 4 11
3 25 -2 15 -6 26 -6 30 1 4 5 12 6 18 2 18 -11 107 -10 107 1 0 7 3 8 8 1 8
-11 132 -14 132 -3 0 4 11 3 25 -2 16 -6 26 -6 31 1 3 6 11 6 17 1 14 -10 57
-9 74 1 6 4 15 2 19 -4 4 -8 9 -7 15 2 5 8 9 10 9 4 0 -12 109 -13 128 -2 7 5
12 3 12 -4 0 -8 5 -7 17 2 11 10 14 10 9 2 -5 -10 -1 -11 18 -3 17 6 27 6 32
-1 4 -6 11 -6 20 2 11 9 14 8 14 -2 0 -11 2 -11 8 -2 7 11 97 24 160 23 13 0
21 3 19 8 -3 4 8 8 24 9 67 4 79 6 79 15 0 5 5 6 10 3 6 -4 18 -1 27 7 14 11
16 11 8 -1 -6 -11 -5 -12 6 -5 8 4 23 10 34 12 11 2 25 5 30 6 52 14 64 19 60
26 -2 4 7 5 20 2 15 -2 25 0 25 7 0 7 5 9 10 6 6 -3 10 -2 10 3 0 5 8 9 18 9
34 0 43 3 38 12 -4 5 4 7 16 3 14 -3 19 -1 14 6 -4 8 -2 10 7 6 8 -3 21 1 28
8 8 7 19 13 24 14 21 1 75 26 75 35 0 4 7 5 17 2 12 -5 14 -3 8 7 -6 10 -3 12
13 8 12 -4 20 -2 17 2 -3 5 5 12 17 16 13 3 42 19 66 35 24 16 47 29 52 29 4
0 10 4 12 9 2 5 9 11 17 13 19 4 57 41 53 51 -1 5 2 6 8 2 9 -6 91 50 98 67 2
5 8 8 14 8 16 0 40 29 33 40 -4 6 -3 10 2 9 19 -3 46 2 40 7 -4 4 9 19 28 34
19 15 32 30 28 34 -3 3 1 6 10 6 8 0 19 9 22 21 4 12 13 18 20 15 9 -3 12 1
10 14 -3 14 1 18 16 15 11 -2 17 -1 15 3 -2 4 15 30 40 57 24 28 44 56 44 63
0 7 4 11 8 8 4 -2 14 4 21 16 9 15 10 18 0 13 -8 -5 -10 -4 -5 3 4 7 14 12 22
12 8 0 12 5 9 10 -3 6 1 13 9 16 9 3 16 11 16 16 0 5 10 23 21 40 12 16 32 51
45 76 13 26 24 43 24 37 1 -13 60 105 65 129 3 11 10 23 16 27 6 4 8 12 4 19
-6 9 -4 11 5 5 10 -6 12 -4 7 8 -3 9 -1 17 5 19 12 4 19 26 22 65 0 11 4 19 9
16 6 -4 11 12 8 30 0 4 4 7 11 7 6 0 8 3 5 7 -4 3 -1 16 6 27 7 12 12 31 11
43 -1 13 3 23 9 23 5 0 7 11 5 24 -3 15 -1 23 6 20 6 -2 12 9 13 27 1 17 8 38
15 47 11 13 11 14 -1 7 -11 -6 -12 -5 -5 6 5 8 9 17 10 22 1 4 3 9 4 12 1 3 4
10 5 15 1 6 3 11 4 13 2 2 8 29 15 64 1 7 5 16 9 19 4 4 2 13 -5 21 -9 11 -8
13 3 11 9 -2 14 6 13 24 0 15 4 24 9 21 4 -3 7 1 6 8 -2 8 3 31 10 51 7 21 10
42 7 47 -4 5 -1 13 5 16 5 4 8 13 5 21 -3 8 -2 14 3 14 5 0 12 15 16 33 4 17
8 34 9 37 1 3 5 23 10 45 4 22 12 46 18 53 6 6 7 12 3 12 -4 0 -2 6 4 14 9 11
9 16 0 21 -6 4 -7 10 -3 14 18 13 34 50 24 56 -6 4 -4 12 5 21 8 9 13 19 10
24 -3 4 2 24 10 44 8 20 12 36 8 36 -5 0 -1 5 7 10 11 7 11 10 2 10 -7 0 -10
5 -7 10 4 6 11 8 16 5 5 -3 6 1 3 10 -4 8 0 23 7 32 12 14 12 16 0 8 -11 -6
-12 -5 -5 6 5 8 9 17 10 22 1 4 2 8 4 10 1 1 3 9 5 17 8 31 15 61 21 82 3 13
8 34 11 48 3 14 10 30 15 37 6 7 4 13 -4 16 -10 4 -10 6 0 6 6 1 12 9 12 19 0
10 6 24 13 31 10 11 9 12 -3 6 -12 -7 -13 -6 -3 6 7 9 14 24 16 35 1 10 6 24
9 29 4 6 9 30 12 54 2 24 10 47 16 51 9 6 9 9 0 15 -8 5 -7 12 6 26 9 10 14
19 11 19 -3 0 0 18 8 40 8 22 12 40 8 40 -3 0 -1 6 6 13 8 10 7 17 -2 26 -9
10 -8 11 6 6 22 -9 22 4 0 35 -16 24 -16 25 2 10 17 -14 18 -13 13 7 -3 12 -2
23 3 25 4 2 10 19 12 38 2 20 6 40 9 45 3 6 4 18 3 28 -2 9 1 17 6 17 6 0 7 5
4 10 -3 5 -3 15 1 22 4 6 8 28 9 47 4 77 17 157 28 170 8 10 8 13 1 8 -8 -4
-11 5 -10 27 0 19 4 32 9 29 4 -2 7 0 7 6 0 5 -5 13 -10 16 -6 4 -8 11 -5 16
13 20 14 53 2 68 -8 9 -8 12 -1 8 15 -9 24 56 11 78 -4 8 -4 15 0 15 13 0 5
182 -7 190 -8 5 -7 9 3 13 12 4 13 14 7 41 -5 25 -4 36 4 36 6 0 4 5 -4 10 -8
5 -10 10 -5 10 6 0 3 5 -5 10 -12 8 -12 10 -1 10 10 0 11 3 2 14 -8 10 -9 16
-1 21 6 3 8 10 5 15 -6 10 -18 102 -19 148 0 17 -4 32 -9 32 -4 0 -6 4 -3 9 4
5 2 21 -4 35 -6 17 -6 26 1 26 6 0 5 9 -2 23 -7 12 -14 44 -16 72 -3 27 -8 52
-12 55 -3 3 -7 13 -8 23 0 9 -1 26 -2 38 0 12 -5 17 -12 13 -8 -5 -8 -1 0 13
7 14 7 23 0 30 -6 6 -12 19 -14 29 -2 11 -4 19 -5 19 -2 0 -5 14 -13 60 -3 11
-8 28 -12 37 -4 10 -8 29 -9 43 0 14 -4 25 -8 25 -5 0 -8 13 -8 28 0 16 -3 32
-7 36 -6 6 -10 16 -17 56 -2 8 -6 22 -9 30 -3 8 -11 39 -17 68 -7 28 -16 55
-21 58 -5 3 -6 10 -3 16 4 6 -1 17 -11 25 -11 7 -14 13 -8 13 7 0 11 9 10 20
-1 11 -5 20 -9 20 -4 0 -8 8 -8 18 0 10 -3 22 -6 25 -4 4 -8 19 -10 34 -3 29
-11 68 -14 68 -2 0 -11 35 -14 55 -1 9 -5 20 -9 27 -4 6 -8 23 -9 36 -1 14 -6
23 -12 20 -5 -4 -7 3 -4 15 3 11 1 29 -6 39 -6 10 -11 32 -11 48 0 17 -6 36
-12 43 -7 7 -13 24 -13 38 0 13 -5 24 -10 24 -7 0 -8 6 -2 17 7 11 4 26 -8 47
-9 17 -18 39 -19 49 -1 9 -2 26 -3 37 -1 11 -5 20 -8 20 -4 0 -7 6 -7 13 0 6
-7 35 -16 64 -8 28 -13 54 -10 57 4 3 0 6 -8 6 -11 0 -11 2 1 10 10 6 11 10 3
10 -7 0 -13 11 -13 24 0 14 -5 28 -11 31 -6 4 -8 13 -5 21 3 7 -3 18 -12 23
-14 8 -14 10 -2 11 9 0 11 3 5 8 -5 4 -11 16 -12 27 -3 23 -11 59 -14 63 -2 3
-6 19 -8 33 0 5 -5 8 -9 5 -4 -3 -7 8 -6 23 2 25 -20 87 -36 101 -3 3 -7 16
-9 30 -1 14 -7 28 -13 31 -5 3 -9 9 -7 13 4 12 -24 76 -33 76 -5 0 -7 3 -5 8
8 12 -12 54 -23 47 -6 -4 -7 1 -3 11 4 11 -1 22 -13 31 -10 8 -18 17 -18 21 3
12 -14 50 -26 57 -5 3 -8 11 -5 16 4 5 2 9 -3 9 -5 0 -15 14 -22 30 -7 17 -16
30 -21 30 -5 0 -9 6 -9 14 0 7 -12 26 -28 42 -15 16 -30 34 -32 39 -3 6 -9 9
-13 7 -5 -1 -6 2 -3 7 8 12 -4 42 -14 36 -4 -2 -12 7 -19 21 -6 14 -16 22 -21
19 -6 -4 -10 -3 -9 2 4 21 -2 33 -17 33 -8 0 -13 4 -10 8 6 10 -45 58 -57 54
-5 -1 -6 1 -3 6 3 5 -10 24 -29 42 -19 18 -31 38 -28 44 4 6 -2 4 -13 -4 -10
-8 -16 -10 -12 -6 10 12 -32 47 -45 39 -5 -3 -7 -2 -4 4 6 10 -38 63 -53 63
-5 0 -19 10 -32 23 -35 35 -85 67 -92 60 -3 -3 -6 1 -6 11 0 9 -4 14 -10 11
-5 -3 -10 -2 -10 4 0 5 -9 13 -20 16 -11 4 -18 10 -16 14 3 4 -5 8 -17 8 -12
1 -23 7 -25 13 -2 5 -10 10 -18 10 -9 0 -12 5 -8 13 4 6 3 9 -1 4 -5 -4 -19 0
-33 9 -13 8 -30 13 -37 10 -10 -3 -12 0 -8 11 4 10 2 14 -5 9 -6 -3 -14 -1
-17 5 -4 5 -14 8 -22 5 -8 -3 -11 -1 -8 4 3 6 -3 10 -14 10 -12 0 -21 3 -21 8
0 8 -24 19 -118 56 -34 14 -62 22 -62 20 0 -3 -10 2 -21 10 -12 8 -28 12 -35
9 -8 -3 -14 0 -14 7 0 6 -4 9 -9 5 -5 -3 -17 2 -25 11 -10 10 -16 11 -16 3 0
-9 -4 -8 -15 1 -8 7 -15 10 -15 6 0 -3 -16 0 -35 8 -26 11 -35 12 -35 3 0 -8
-3 -8 -8 -2 -9 12 -30 19 -59 18 -13 -1 -23 3 -23 7 0 4 -13 10 -30 12 -16 3
-30 1 -30 -4 0 -5 -6 -6 -12 -1 -17 10 -32 13 -99 19 -122 10 -180 10 -186 1
-3 -6 -12 -2 -20 8 -7 11 -13 14 -13 9 0 -12 -49 -12 -67 -1 -7 4 -14 3 -18
-2 -3 -6 -13 -7 -22 -4 -12 5 -14 3 -9 -8 4 -8 0 -5 -9 6 -11 12 -19 16 -22 9
-2 -7 -14 -9 -26 -6 -20 5 -21 4 -7 -14 14 -19 14 -19 -7 0 -12 10 -29 16 -37
13 -9 -4 -18 -2 -21 3 -6 9 -24 8 -41 -2 -10 -7 -20 -6 -59 2 -5 1 -12 1 -15
0 -14 -5 -60 -5 -60 1 0 10 -27 5 -37 -6 -4 -4 -2 -5 6 0 10 6 12 4 7 -4 -6
-9 -11 -9 -22 0 -8 6 -25 8 -40 5 -18 -5 -24 -3 -18 5 4 8 3 9 -5 5 -19 -12
-63 -18 -57 -7 3 5 -2 8 -11 6 -10 -2 -18 -4 -18 -5 0 -1 -21 -3 -47 -4 -27
-1 -48 2 -48 7 0 5 -8 3 -17 -4 -14 -12 -16 -12 -8 0 6 11 5 12 -6 5 -21 -13
-39 -14 -39 -1 0 8 -3 8 -8 2 -9 -13 -72 -15 -72 -2 0 5 -7 4 -15 -3 -8 -7
-15 -9 -15 -4 0 5 -5 2 -10 -6 -8 -13 -10 -13 -10 2 0 10 -6 15 -12 13 -31
-10 -78 -12 -84 -4 -3 5 -10 6 -16 3 -19 -12 -68 -12 -68 0 0 7 -4 6 -9 -2 -4
-8 -12 -14 -16 -14 -4 0 -12 6 -16 14 -7 11 -9 11 -9 -1 0 -11 -3 -11 -15 -1
-8 7 -15 8 -15 3 0 -6 -24 -9 -55 -8 -30 1 -55 -2 -55 -7 0 -5 -7 -2 -16 7
-10 9 -21 12 -28 7 -13 -10 -27 -10 -43 1 -6 4 -14 4 -17 -1z m329 -31 c3 -5
2 -12 -3 -15 -5 -3 -9 1 -9 9 0 17 3 19 12 6z m-204 -58 c13 -16 12 -17 -3 -4
-10 7 -18 15 -18 17 0 8 8 3 21 -13z m126 2 c0 -8 -4 -12 -9 -9 -5 3 -6 10 -3
15 9 13 12 11 12 -6z m238 6 c3 -5 2 -12 -3 -15 -5 -3 -9 1 -9 9 0 17 3 19 12
6z m239 -7 c3 -8 2 -12 -4 -9 -6 3 -10 10 -10 16 0 14 7 11 14 -7z m-704 -30
c0 -8 -19 -13 -24 -6 -3 5 1 9 9 9 8 0 15 -2 15 -3z m1950 0 c0 -8 -19 -13
-24 -6 -3 5 1 9 9 9 8 0 15 -2 15 -3z m-1155 -44 c3 -6 -1 -7 -9 -4 -18 7 -21
14 -7 14 6 0 13 -4 16 -10z m-867 -36 c6 -1 12 3 12 9 0 8 3 8 8 2 4 -5 18
-10 32 -10 14 0 28 5 32 10 5 7 8 7 8 0 0 -6 48 -10 122 -10 71 0 126 4 130
10 5 7 8 7 8 0 0 -5 16 -10 35 -11 20 0 31 4 28 9 -4 6 -1 7 7 2 19 -12 240
-12 240 0 0 7 3 7 8 0 10 -14 74 -16 65 -2 -4 6 -1 7 7 2 16 -10 59 -11 83 -2
9 3 19 1 23 -5 5 -7 2 -8 -6 -3 -9 5 -11 4 -6 -4 5 -8 12 -9 19 -2 7 5 31 8
55 7 23 -1 42 2 42 6 0 5 5 6 12 2 17 -11 108 -11 108 -1 0 4 6 5 12 0 15 -9
273 -7 288 2 5 3 10 2 10 -2 0 -12 53 -10 62 2 5 7 8 7 8 0 0 -6 34 -10 83 -9
45 0 89 -3 98 -7 9 -5 22 -3 29 4 10 9 11 9 6 0 -5 -8 -1 -13 11 -14 45 -1 98
-9 158 -24 36 -10 71 -18 78 -19 7 -1 18 -5 25 -9 7 -5 12 -3 13 5 0 10 2 10
6 0 2 -6 9 -10 14 -6 5 3 9 0 9 -7 0 -7 3 -10 6 -6 3 3 26 -3 51 -14 24 -10
53 -19 64 -19 10 0 19 -3 19 -7 0 -5 11 -13 25 -20 14 -6 23 -7 20 -3 -3 5 14
-1 37 -13 24 -12 45 -25 46 -30 2 -4 7 -5 12 -2 5 3 14 0 22 -7 19 -18 106
-61 124 -61 7 0 12 -2 9 -5 -6 -6 21 -32 33 -32 5 0 15 -7 22 -15 7 -9 15 -14
17 -11 2 2 15 -6 28 -18 37 -34 55 -47 55 -41 0 3 16 -10 36 -29 20 -20 40
-34 44 -31 4 2 13 -7 20 -20 7 -13 17 -22 22 -19 4 3 8 -1 8 -9 0 -8 7 -18 16
-21 9 -3 12 -11 8 -18 -5 -9 -2 -8 10 1 9 8 16 10 14 4 -5 -16 70 -95 83 -87
8 5 9 3 4 -6 -4 -7 -4 -15 1 -19 19 -13 84 -100 84 -111 0 -9 5 -9 17 1 15 13
15 12 4 -10 -8 -15 -9 -21 -2 -17 6 4 11 0 11 -8 0 -9 4 -16 10 -16 5 0 17
-14 25 -30 10 -19 20 -28 28 -23 7 4 5 -2 -3 -12 -14 -17 -13 -18 9 -12 16 4
21 3 14 -4 -11 -11 5 -59 20 -59 5 0 5 -5 1 -12 -5 -8 -2 -9 10 -5 11 4 15 3
10 -4 -6 -11 23 -78 39 -90 5 -3 8 -9 8 -13 -3 -20 0 -26 12 -20 9 6 9 4 -1
-8 -10 -13 -10 -17 3 -22 9 -3 13 -10 10 -16 -3 -5 -1 -10 5 -10 6 0 9 -4 6
-8 -3 -5 2 -21 10 -36 7 -16 14 -35 14 -42 0 -8 6 -14 13 -15 8 0 8 -2 -2 -6
-10 -4 -10 -7 -2 -13 7 -4 13 -17 14 -28 1 -12 5 -22 10 -22 4 0 5 -5 1 -12
-5 -8 -2 -9 11 -4 15 5 16 4 5 -9 -10 -12 -10 -21 -1 -41 6 -14 9 -29 6 -34
-3 -5 0 -12 6 -15 5 -4 8 -13 5 -21 -3 -8 -2 -14 3 -14 7 0 14 -18 26 -80 2
-8 5 -23 7 -32 2 -10 7 -21 11 -24 4 -4 7 -20 7 -36 0 -15 4 -28 8 -28 4 0 8
-8 9 -17 5 -55 9 -73 15 -73 5 0 7 -3 7 -7 -3 -20 2 -44 9 -40 4 3 7 -9 7 -26
0 -18 5 -43 12 -56 6 -14 10 -28 7 -33 -3 -4 0 -8 6 -8 6 0 9 -4 5 -9 -3 -5
-1 -13 5 -16 8 -5 7 -11 -1 -21 -8 -10 -8 -14 0 -14 6 0 11 -7 11 -16 0 -9 5
-12 13 -8 9 5 9 4 0 -6 -9 -10 -10 -17 -2 -27 9 -10 8 -13 -2 -13 -9 0 -10 -3
-4 -8 6 -4 16 -19 22 -34 10 -22 10 -28 0 -28 -8 0 -9 -3 -1 -8 6 -4 14 -18
17 -32 9 -41 15 -63 32 -115 9 -27 19 -66 22 -85 3 -19 8 -37 12 -40 3 -3 7
-18 8 -34 1 -16 8 -33 15 -38 10 -6 10 -8 -2 -8 -13 -1 -13 -2 1 -13 9 -7 14
-18 11 -25 -2 -8 0 -24 6 -35 6 -12 13 -39 17 -59 4 -29 9 -36 23 -32 11 4 13
3 5 -3 -12 -9 -13 -63 0 -63 4 0 7 -14 7 -31 0 -16 4 -28 8 -25 4 2 9 -5 10
-17 5 -64 24 -127 36 -120 6 4 5 -1 -3 -10 -11 -14 -11 -18 1 -22 10 -4 13
-15 10 -31 -2 -13 0 -24 5 -24 5 0 8 -12 8 -27 -1 -16 5 -39 13 -52 8 -13 10
-21 4 -17 -6 4 -8 -2 -5 -14 3 -11 8 -18 12 -16 3 2 6 -7 6 -20 0 -17 -4 -23
-14 -19 -11 4 -12 3 -1 -10 7 -8 16 -12 20 -10 5 3 5 -8 0 -25 -5 -16 -5 -32
0 -35 5 -3 9 -18 9 -33 1 -41 7 -71 14 -78 4 -4 2 -13 -4 -21 -7 -7 -7 -13 -2
-13 5 0 11 -19 12 -42 1 -24 3 -63 5 -88 1 -25 6 -51 10 -58 4 -7 4 -12 -1
-12 -4 0 -8 -25 -8 -55 0 -30 2 -55 5 -55 3 0 5 -25 5 -55 1 -30 -3 -55 -8
-55 -4 0 -3 -8 2 -19 6 -10 7 -21 4 -25 -11 -11 -9 -106 2 -106 5 0 2 -5 -8
-11 -13 -8 -15 -15 -7 -28 5 -10 8 -20 6 -22 -3 -4 -9 -41 -21 -129 -2 -14 -4
-25 -5 -25 -1 0 -3 -22 -4 -50 -2 -27 -4 -50 -6 -50 -2 0 -3 -7 -21 -106 -7
-39 -16 -72 -21 -75 -4 -3 -3 -14 3 -26 8 -15 8 -19 0 -14 -7 4 -12 -1 -12
-13 -1 -20 -4 -32 -9 -48 -1 -5 -2 -11 -1 -15 0 -5 -3 -8 -7 -8 -4 0 -8 -8 -8
-17 -2 -27 -14 -85 -21 -96 -6 -10 -20 -64 -29 -110 -3 -15 -11 -38 -18 -52
-7 -13 -12 -38 -11 -54 1 -17 -2 -28 -7 -25 -4 3 -8 -8 -8 -23 0 -16 -4 -33
-10 -39 -5 -5 -11 -22 -12 -37 -1 -15 -6 -27 -11 -27 -5 0 -4 -7 3 -15 7 -9 8
-15 2 -15 -16 0 -24 -33 -10 -42 8 -4 8 -8 2 -8 -18 0 -34 -46 -21 -59 9 -10
9 -12 -2 -9 -8 2 -14 -9 -17 -31 -2 -19 -8 -37 -12 -40 -4 -4 -8 -13 -8 -21 0
-8 -6 -35 -14 -60 -7 -25 -13 -51 -11 -57 1 -7 -3 -13 -8 -13 -6 0 -8 -7 -5
-15 4 -8 2 -15 -2 -15 -9 0 -11 -10 -17 -70 -1 -14 -8 -30 -16 -36 -10 -8 -11
-13 -2 -18 8 -5 7 -11 -4 -22 -8 -9 -13 -20 -9 -25 3 -6 1 -16 -6 -24 -6 -8
-10 -22 -8 -32 1 -10 -1 -24 -6 -32 -14 -22 -45 -154 -39 -164 4 -6 1 -7 -7
-2 -10 6 -12 4 -7 -8 3 -8 0 -20 -7 -26 -7 -6 -12 -21 -11 -33 1 -13 -4 -38
-11 -55 -7 -18 -11 -33 -8 -33 3 0 2 -6 -2 -12 -8 -12 -13 -34 -16 -70 -1 -10
-6 -18 -10 -18 -4 0 -5 -10 -3 -21 3 -12 1 -19 -2 -15 -9 8 -34 -65 -28 -81 2
-7 1 -13 -3 -13 -4 0 -16 -21 -26 -48 -37 -91 -69 -157 -79 -163 -5 -4 -7 -11
-3 -17 3 -5 -1 -13 -10 -16 -8 -3 -12 -10 -9 -16 3 -5 1 -10 -4 -10 -6 0 -11
-5 -11 -11 0 -18 -37 -59 -46 -51 -5 4 -2 -2 6 -12 8 -11 10 -17 4 -13 -7 4
-16 -5 -23 -21 -7 -16 -23 -40 -36 -55 -14 -14 -25 -30 -25 -36 0 -5 -3 -11
-8 -13 -14 -6 -91 -105 -87 -112 3 -3 2 -4 -1 -1 -4 2 -29 -19 -57 -48 -27
-28 -54 -51 -58 -49 -5 1 -9 -2 -9 -8 0 -5 -9 -19 -20 -30 -11 -11 -20 -17
-20 -14 0 4 -11 -5 -24 -19 -13 -14 -27 -23 -30 -20 -3 4 -6 -2 -6 -12 0 -10
-3 -16 -6 -12 -8 8 -33 -16 -27 -25 2 -4 -3 -5 -11 -2 -10 4 -16 1 -16 -7 0
-7 -3 -10 -6 -7 -3 3 -17 -5 -31 -18 -14 -13 -29 -21 -34 -18 -9 5 -13 -10
-10 -30 1 -5 -6 -3 -15 5 -12 9 -15 9 -10 2 4 -8 1 -13 -8 -13 -9 0 -16 -5
-16 -11 0 -5 -4 -8 -9 -5 -5 3 -14 -1 -21 -9 -7 -8 -16 -12 -21 -9 -5 3 -9 0
-9 -6 0 -6 -12 -15 -27 -21 -16 -6 -59 -26 -97 -45 -38 -19 -77 -34 -87 -34
-9 0 -19 -4 -21 -9 -1 -5 -12 -11 -23 -13 -11 -1 -22 -5 -25 -8 -8 -9 -75 -30
-94 -30 -9 0 -15 -4 -12 -8 2 -4 -7 -7 -22 -7 -15 1 -36 -5 -46 -12 -14 -9
-24 -9 -39 -2 -14 8 -18 8 -13 0 4 -7 -2 -12 -16 -13 -27 -2 -50 -5 -60 -8 -5
-1 -12 -3 -17 -4 -5 0 -13 -4 -17 -8 -4 -4 -13 -3 -21 3 -10 9 -13 8 -13 0 0
-7 -4 -9 -10 -6 -5 3 -10 1 -10 -6 0 -8 -4 -8 -15 1 -8 7 -15 8 -15 4 0 -12
-81 -12 -99 0 -9 6 -12 5 -8 -1 5 -7 -10 -12 -38 -15 -25 -2 -45 0 -45 4 0 4
-7 5 -15 2 -8 -4 -12 -11 -8 -18 5 -8 3 -8 -8 1 -9 8 -58 11 -146 10 -73 0
-135 2 -139 5 -10 11 -34 -3 -27 -16 3 -6 1 -6 -8 1 -18 17 -63 17 -53 1 6
-10 4 -10 -7 -2 -21 17 -143 18 -133 2 6 -10 5 -10 -7 -2 -9 8 -85 12 -240 11
-124 0 -231 3 -237 7 -7 4 -12 4 -12 -1 0 -4 -105 -7 -232 -6 -128 1 -233 2
-233 3 0 0 -28 3 -62 5 -35 2 -68 7 -74 11 -8 4 -9 3 -5 -4 4 -7 -5 -6 -26 2
-23 10 -38 11 -52 4 -13 -7 -16 -7 -12 1 5 7 -2 11 -18 11 -13 0 -36 4 -50 10
-17 6 -27 6 -32 -2 -5 -8 -11 -6 -18 4 -6 9 -37 21 -68 28 -33 8 -55 17 -51
23 3 6 1 7 -4 4 -12 -8 -115 22 -124 36 -3 4 -10 7 -15 5 -12 -3 -188 82 -192
93 -2 5 -8 9 -14 9 -6 0 -27 10 -47 22 -20 13 -40 23 -44 23 -5 0 -15 8 -22
18 -7 10 -17 19 -22 20 -22 3 -62 33 -58 44 2 7 1 12 -3 12 -17 -3 -29 3 -56
26 -17 14 -36 23 -42 21 -9 -3 -11 1 -7 11 5 12 2 15 -10 10 -11 -4 -14 -2
-10 9 5 13 -8 19 -30 15 -5 -1 -6 3 -3 8 4 5 2 12 -4 16 -6 4 -7 12 -4 18 4 7
3 9 -1 4 -11 -9 -46 23 -39 35 3 4 2 8 -3 7 -20 -3 -34 2 -28 11 6 9 -8 14
-28 11 -4 0 -6 3 -5 8 5 15 -53 81 -65 74 -5 -3 -7 -1 -3 5 3 6 -1 17 -9 25
-8 9 -15 18 -15 22 0 3 -9 15 -20 27 -11 12 -20 28 -20 35 0 8 -5 11 -10 8 -6
-3 -10 -1 -10 4 0 6 -9 20 -20 31 -11 11 -18 20 -15 20 3 0 1 9 -5 20 -6 10
-16 18 -23 16 -6 -1 -9 -1 -4 1 11 7 9 33 -3 33 -5 0 -10 7 -10 15 0 8 -3 15
-8 15 -8 0 -38 61 -34 73 1 4 -3 7 -8 7 -6 0 -10 7 -10 16 0 11 -5 14 -16 10
-14 -5 -15 -4 -4 9 11 13 7 19 -11 17 -4 -1 -4 8 -1 20 3 14 -1 26 -13 34 -14
10 -15 14 -4 14 12 0 12 2 -1 10 -8 5 -11 10 -6 10 5 0 3 6 -3 14 -7 8 -14 25
-16 37 -3 13 -9 25 -15 27 -6 2 -8 7 -6 11 3 4 -5 38 -16 76 -11 39 -23 85
-28 103 -5 19 -15 41 -24 51 -9 10 -13 21 -9 25 11 10 12 36 2 36 -5 0 -8 3
-8 8 4 22 -2 42 -11 37 -7 -4 -7 3 0 20 7 17 7 24 0 20 -9 -6 -14 7 -11 27 0
4 -4 20 -10 35 -6 15 -13 39 -15 53 -9 47 -15 60 -27 54 -9 -5 -9 -3 0 6 7 8
9 19 4 29 -10 17 -11 23 -11 47 0 11 -5 14 -16 10 -13 -5 -14 -3 -6 7 6 7 9
22 7 32 -2 11 -4 24 -4 28 -1 5 -6 5 -12 1 -8 -5 -8 -1 0 14 7 14 8 23 1 27
-5 3 -10 15 -10 26 0 10 -6 19 -12 19 -9 0 -8 4 2 10 10 6 11 10 3 10 -7 0
-13 12 -13 26 0 14 -4 23 -9 19 -6 -3 -6 6 -1 25 5 17 5 28 0 25 -10 -6 -19
16 -26 64 -3 20 -9 38 -13 41 -3 3 -7 14 -8 25 -1 11 -4 27 -6 35 -3 8 -8 30
-12 48 -4 17 -11 32 -16 32 -4 0 -6 8 -4 18 1 9 -3 35 -11 57 -7 22 -14 50
-14 63 0 12 -4 22 -10 22 -5 0 -9 3 -9 8 4 24 -2 52 -11 47 -6 -4 -6 3 0 21 9
23 9 25 -4 15 -11 -9 -16 -9 -22 0 -4 7 -3 9 3 6 6 -4 13 0 17 8 3 8 1 15 -5
15 -6 0 -8 9 -4 20 4 11 2 20 -4 20 -6 0 -11 14 -11 30 0 17 -4 30 -9 30 -5 0
-9 6 -8 13 1 35 -4 48 -15 41 -10 -6 -10 -4 0 8 10 13 10 18 0 29 -7 8 -14 25
-16 39 -6 65 -10 75 -22 72 -11 -3 -11 0 0 13 8 10 10 19 4 23 -5 4 -10 21
-12 37 -2 17 -8 45 -13 62 -6 18 -8 37 -4 43 3 5 3 10 -2 10 -4 0 -9 12 -10
28 -1 15 -5 41 -8 57 -3 17 -6 45 -6 62 -1 18 -5 31 -9 28 -4 -3 -4 11 0 30 4
19 4 38 -1 41 -5 3 -7 23 -6 45 2 21 1 39 -3 39 -3 0 -5 15 -4 32 1 18 -3 36
-9 40 -7 5 -8 8 -2 8 12 0 13 40 1 58 -4 7 -2 19 4 27 10 12 10 15 0 15 -10 0
-10 3 -1 14 9 11 9 16 0 21 -8 6 -7 10 2 16 11 7 11 9 1 9 -7 0 -10 5 -7 10
12 20 15 71 3 64 -7 -5 -8 -3 -2 7 5 8 9 21 9 29 0 8 4 20 8 27 4 6 3 14 -3
18 -6 4 -8 10 -6 14 3 4 7 47 10 96 3 48 8 90 11 93 2 3 -1 12 -8 20 -9 13 -9
14 1 8 7 -4 12 -1 12 9 0 10 -5 13 -12 9 -8 -5 -7 0 2 10 8 10 15 33 16 50 1
17 3 31 4 31 1 0 4 14 5 30 2 17 8 44 13 62 6 17 8 34 4 37 -3 3 0 6 8 6 10 0
10 3 0 15 -8 9 -9 15 -2 15 6 0 9 9 7 20 -2 11 0 22 6 25 14 9 11 37 -3 30 -7
-4 -6 -1 3 7 21 17 34 68 17 68 -6 0 -4 6 7 13 10 8 15 19 11 25 -4 7 -2 12 3
12 6 0 10 3 10 8 -4 19 15 92 24 92 5 0 3 8 -4 17 -12 14 -12 16 0 9 9 -6 12
-5 9 5 -3 8 1 26 8 40 7 15 10 29 7 33 -4 3 -2 6 3 6 5 0 10 8 11 18 3 33 11
70 21 89 5 10 8 26 7 36 -2 9 1 17 6 17 5 0 9 5 9 11 0 5 -6 7 -12 3 -7 -4 -6
1 3 12 16 19 18 27 22 83 1 19 6 27 16 23 10 -4 12 1 7 16 -4 11 -2 23 3 26 5
4 8 15 6 26 -2 11 1 22 6 25 5 4 7 11 4 16 -4 5 -2 9 3 9 9 0 9 2 14 55 2 17
6 32 10 35 4 3 9 18 12 33 2 14 7 30 10 35 4 7 10 34 20 89 1 7 5 16 9 19 4 4
7 18 7 31 0 12 3 23 8 23 4 0 8 16 8 36 1 20 8 40 15 45 8 5 11 9 7 9 -4 0 -1
20 6 44 8 25 11 47 8 50 -3 4 0 6 6 6 6 0 9 7 5 17 -4 9 -2 14 3 11 5 -3 10 8
11 26 3 29 9 65 14 76 1 3 3 12 3 20 1 8 8 14 16 12 10 -2 11 0 2 11 -7 8 -9
17 -5 21 8 7 13 29 18 66 1 14 6 24 11 23 5 -1 10 15 10 35 1 20 6 38 12 40 5
1 8 12 5 22 -3 12 0 20 8 20 7 0 10 3 6 6 -3 3 1 27 9 52 8 26 16 52 17 57 2
6 6 16 10 22 5 7 10 23 12 35 3 13 9 24 15 26 5 2 10 12 10 22 0 10 6 25 12
32 7 7 14 20 16 28 8 33 49 109 56 102 4 -4 6 -2 5 3 -2 6 2 20 9 31 6 12 8
25 4 29 -4 5 -2 5 4 2 13 -8 27 19 19 34 -4 5 1 6 9 3 15 -6 22 11 17 39 -1 5
3 6 8 2 6 -3 17 7 25 23 8 16 22 34 30 41 9 7 14 17 11 21 -3 5 4 11 15 15 11
4 18 10 16 14 -3 4 9 20 25 35 25 24 28 31 17 45 -11 14 -11 14 3 4 12 -10 18
-9 32 7 9 11 17 25 17 32 0 6 3 8 7 5 3 -4 17 8 30 25 12 18 23 28 23 22 0 -5
12 3 28 19 67 68 111 105 116 100 3 -4 6 -1 6 6 0 7 5 9 10 6 6 -3 10 -2 10 4
0 5 13 18 29 27 17 10 27 22 24 27 -3 6 -1 7 5 3 6 -4 20 2 31 13 11 11 22 17
25 14 3 -4 6 -1 6 6 0 7 3 10 8 8 10 -7 32 19 24 29 -4 5 2 2 12 -6 18 -14 19
-13 13 2 -4 12 -2 15 9 11 7 -3 14 0 14 6 0 6 3 10 8 10 21 -4 32 3 33 19 0
11 2 12 6 4 4 -10 8 -10 19 -1 11 9 14 8 15 -2 0 -8 4 -4 9 9 8 19 19 24 46
21 3 0 13 8 22 18 9 10 27 18 39 17 13 -1 28 5 34 12 6 8 15 11 20 8 5 -3 9 0
9 6 0 6 4 9 9 5 5 -3 12 -1 16 5 4 6 11 8 16 5 5 -4 15 -3 22 2 6 4 14 8 17 9
3 1 20 5 37 9 18 4 31 11 28 15 -2 3 6 6 18 5 12 -1 28 2 35 8 7 6 27 11 45
13 18 1 46 5 62 8 17 4 48 9 69 12 59 8 60 8 68 19 5 6 8 6 8 -1 0 -6 13 -11
30 -10 16 1 30 4 30 8 0 3 14 5 30 3 17 -2 30 1 30 6 0 6 6 7 13 2 6 -4 18 -8
25 -9z m-613 -4 c-3 -5 -12 -10 -18 -10 -7 0 -6 4 3 10 19 12 23 12 15 0z
m2989 -126 c3 -8 2 -12 -4 -9 -6 3 -10 10 -10 16 0 14 7 11 14 -7z m41 -74 c3
-5 1 -10 -4 -10 -6 0 -11 5 -11 10 0 6 2 10 4 10 3 0 8 -4 11 -10z m-3598 -85
c0 -8 -4 -12 -9 -9 -5 3 -6 10 -3 15 9 13 12 11 12 -6z m3773 -31 c0 -8 -19
-13 -24 -6 -3 5 1 9 9 9 8 0 15 -2 15 -3z m-3930 -80 c0 -8 -19 -13 -24 -6 -3
5 1 9 9 9 8 0 15 -2 15 -3z m35 -3 c3 -5 2 -12 -3 -15 -5 -3 -9 1 -9 9 0 17 3
19 12 6z m-244 -294 c-10 -9 -11 -8 -5 6 3 10 9 15 12 12 3 -3 0 -11 -7 -18z
m84 -16 c3 -5 2 -12 -3 -15 -5 -3 -9 1 -9 9 0 17 3 19 12 6z m4482 -86 c0 -8
-4 -12 -9 -9 -5 3 -6 10 -3 15 9 13 12 11 12 -6z m124 -202 c13 -16 12 -17 -3
-4 -10 7 -18 15 -18 17 0 8 8 3 21 -13z m117 -168 c-3 -3 -9 2 -12 12 -6 14
-5 15 5 6 7 -7 10 -15 7 -18z m-5068 -31 c0 -8 -19 -13 -24 -6 -3 5 1 9 9 9 8
0 15 -2 15 -3z m5110 -84 c0 -5 -5 -10 -11 -10 -5 0 -7 5 -4 10 3 6 8 10 11
10 2 0 4 -4 4 -10z m-5110 -116 c0 -8 -19 -13 -24 -6 -3 5 1 9 9 9 8 0 15 -2
15 -3z m5307 -319 c0 -8 -4 -12 -9 -9 -5 3 -6 10 -3 15 9 13 12 11 12 -6z
m-27 -79 c0 -2 -8 -10 -17 -17 -16 -13 -17 -12 -4 4 13 16 21 21 21 13z m24
-96 c-6 -6 -10 -3 -10 10 0 13 4 16 10 10 7 -7 7 -13 0 -20z m-43 -83 c-10 -9
-11 -8 -5 6 3 10 9 15 12 12 3 -3 0 -11 -7 -18z m-5476 -66 c3 -5 2 -12 -3
-15 -5 -3 -9 1 -9 9 0 17 3 19 12 6z m5518 -196 c-3 -9 -8 -14 -10 -11 -3 3
-2 9 2 15 9 16 15 13 8 -4z m127 -29 c0 -2 -8 -10 -17 -17 -16 -13 -17 -12 -4
4 13 16 21 21 21 13z m-5760 -216 c0 -5 -2 -10 -4 -10 -3 0 -8 5 -11 10 -3 6
-1 10 4 10 6 0 11 -4 11 -10z m5765 -80 c-3 -5 -12 -10 -18 -10 -7 0 -6 4 3
10 19 12 23 12 15 0z m-5764 -37 c13 -16 12 -17 -3 -4 -10 7 -18 15 -18 17 0
8 8 3 21 -13z m-7 -81 c3 -5 -1 -9 -9 -9 -8 0 -12 4 -9 9 3 4 7 8 9 8 2 0 6
-4 9 -8z m-83 -169 c13 -16 12 -17 -3 -4 -10 7 -18 15 -18 17 0 8 8 3 21 -13z
m-80 -240 c13 -16 12 -17 -3 -4 -10 7 -18 15 -18 17 0 8 8 3 21 -13z m6123 1
c3 -8 2 -12 -4 -9 -6 3 -10 10 -10 16 0 14 7 11 14 -7z m39 -69 c-3 -9 -8 -14
-10 -11 -3 3 -2 9 2 15 9 16 15 13 8 -4z m-6158 -53 c-3 -3 -11 0 -18 7 -9 10
-8 11 6 5 10 -3 15 -9 12 -12z m6122 -27 c0 -8 -4 -12 -9 -9 -5 3 -6 10 -3 15
9 13 12 11 12 -6z m-6107 -159 c0 -2 -8 -10 -17 -17 -16 -13 -17 -12 -4 4 13
16 21 21 21 13z m-30 -82 c0 -8 -19 -13 -24 -6 -3 5 1 9 9 9 8 0 15 -2 15 -3z
m15 -52 c-3 -3 -11 0 -18 7 -9 10 -8 11 6 5 10 -3 15 -9 12 -12z m6076 -125
c-10 -9 -11 -8 -5 6 3 10 9 15 12 12 3 -3 0 -11 -7 -18z m-6080 -24 c-12 -20
-14 -14 -5 12 4 9 9 14 11 11 3 -2 0 -13 -6 -23z m9 -237 c0 -2 -7 -7 -16 -10
-8 -3 -12 -2 -9 4 6 10 25 14 25 6z m-30 -82 c0 -8 -19 -13 -24 -6 -3 5 1 9 9
9 8 0 15 -2 15 -3z m6145 -73 c3 -5 2 -12 -3 -15 -5 -3 -9 1 -9 9 0 17 3 19
12 6z m-6055 -165 c0 -2 -7 -7 -16 -10 -8 -3 -12 -2 -9 4 6 10 25 14 25 6z
m5980 -80 c0 -2 -7 -7 -16 -10 -8 -3 -12 -2 -9 4 6 10 25 14 25 6z m-5966
-164 c3 -5 -1 -9 -9 -9 -8 0 -12 4 -9 9 3 4 7 8 9 8 2 0 6 -4 9 -8z m43 -157
c0 -8 -4 -12 -9 -9 -5 3 -6 10 -3 15 9 13 12 11 12 -6z m3 -119 c0 -2 -7 -7
-16 -10 -8 -3 -12 -2 -9 4 6 10 25 14 25 6z m5835 -195 c3 -5 2 -12 -3 -15 -5
-3 -9 1 -9 9 0 17 3 19 12 6z m-40 -10 c3 -5 2 -12 -3 -15 -5 -3 -9 1 -9 9 0
17 3 19 12 6z m-5720 -70 c3 -5 2 -12 -3 -15 -5 -3 -9 1 -9 9 0 17 3 19 12 6z
m5689 -9 c3 -5 -1 -9 -9 -9 -8 0 -12 4 -9 9 3 4 7 8 9 8 2 0 6 -4 9 -8z m81
-42 c3 -6 -1 -7 -9 -4 -18 7 -21 14 -7 14 6 0 13 -4 16 -10z m-5772 -75 c-3
-9 -8 -14 -10 -11 -3 3 -2 9 2 15 9 16 15 13 8 -4z m5728 -2 c13 -16 12 -17
-3 -4 -10 7 -18 15 -18 17 0 8 8 3 21 -13z m-5770 -50 c13 -16 12 -17 -3 -4
-10 7 -18 15 -18 17 0 8 8 3 21 -13z m5724 -112 c3 -5 2 -12 -3 -15 -5 -3 -9
1 -9 9 0 17 3 19 12 6z m-5545 -155 c0 -2 -8 -10 -17 -17 -16 -13 -17 -12 -4
4 13 16 21 21 21 13z m-16 -124 c3 -5 -1 -9 -9 -9 -8 0 -12 4 -9 9 3 4 7 8 9
8 2 0 6 -4 9 -8z m86 -82 c0 -5 -2 -10 -4 -10 -3 0 -8 5 -11 10 -3 6 -1 10 4
10 6 0 11 -4 11 -10z m31 -133 c-10 -9 -11 -8 -5 6 3 10 9 15 12 12 3 -3 0
-11 -7 -18z m5206 -232 c0 -8 -4 -12 -9 -9 -5 3 -6 10 -3 15 9 13 12 11 12 -6z
m43 5 c0 -5 -2 -10 -4 -10 -3 0 -8 5 -11 10 -3 6 -1 10 4 10 6 0 11 -4 11 -10z
m-5240 -120 c0 -5 -5 -10 -11 -10 -5 0 -7 5 -4 10 3 6 8 10 11 10 2 0 4 -4 4
-10z m5204 -78 c3 -5 -1 -9 -9 -9 -8 0 -12 4 -9 9 3 4 7 8 9 8 2 0 6 -4 9 -8z
m-89 -41 c3 -5 2 -12 -3 -15 -5 -3 -9 1 -9 9 0 17 3 19 12 6z m-4911 -199 c3
-5 -1 -9 -9 -9 -8 0 -12 4 -9 9 3 4 7 8 9 8 2 0 6 -4 9 -8z m31 -242 c3 -5 1
-10 -4 -10 -6 0 -11 5 -11 10 0 6 2 10 4 10 3 0 8 -4 11 -10z m46 -77 c13 -16
12 -17 -3 -4 -10 7 -18 15 -18 17 0 8 8 3 21 -13z m79 -79 c0 -8 -19 -13 -24
-6 -3 5 1 9 9 9 8 0 15 -2 15 -3z m4280 -80 c0 -8 -19 -13 -24 -6 -3 5 1 9 9
9 8 0 15 -2 15 -3z m-4036 -82 c3 -5 -1 -9 -9 -9 -8 0 -12 4 -9 9 3 4 7 8 9 8
2 0 6 -4 9 -8z m3920 0 c3 -5 -1 -9 -9 -9 -8 0 -12 4 -9 9 3 4 7 8 9 8 2 0 6
-4 9 -8z m46 -136 c0 -2 -8 -10 -17 -17 -16 -13 -17 -12 -4 4 13 16 21 21 21
13z m-3775 -25 c3 -5 2 -12 -3 -15 -5 -3 -9 1 -9 9 0 17 3 19 12 6z m3442 -46
c0 -8 -4 -12 -9 -9 -5 3 -6 10 -3 15 9 13 12 11 12 -6z m133 11 c0 -2 -8 -10
-17 -17 -16 -13 -17 -12 -4 4 13 16 21 21 21 13z m-290 -80 c0 -2 -7 -7 -16
-10 -8 -3 -12 -2 -9 4 6 10 25 14 25 6z m-2885 -35 c3 -5 2 -12 -3 -15 -5 -3
-9 1 -9 9 0 17 3 19 12 6z m2850 -51 c-3 -5 -12 -10 -18 -10 -7 0 -6 4 3 10
19 12 23 12 15 0z m-315 -36 c0 -8 -19 -13 -24 -6 -3 5 1 9 9 9 8 0 15 -2 15
-3z m-1133 -39 c0 -8 -4 -12 -9 -9 -5 3 -6 10 -3 15 9 13 12 11 12 -6z m-922
-34 c3 -5 2 -12 -3 -15 -5 -3 -9 1 -9 9 0 17 3 19 12 6z m-185 -7 c0 -8 -19
-13 -24 -6 -3 5 1 9 9 9 8 0 15 -2 15 -3z m145 -4 c3 -5 1 -10 -4 -10 -6 0
-11 5 -11 10 0 6 2 10 4 10 3 0 8 -4 11 -10z m810 0 c-3 -5 -12 -10 -18 -10
-7 0 -6 4 3 10 19 12 23 12 15 0z m-608 -35 c0 -8 -4 -12 -9 -9 -5 3 -6 10 -3
15 9 13 12 11 12 -6z m400 0 c0 -8 -4 -12 -9 -9 -5 3 -6 10 -3 15 9 13 12 11
12 -6z m558 -4 c3 -5 2 -12 -3 -15 -5 -3 -9 1 -9 9 0 17 3 19 12 6z m129 1 c2
-4 -4 -8 -14 -8 -10 0 -16 4 -14 8 3 4 9 8 14 8 5 0 11 -4 14 -8z m671 -1 c3
-5 2 -12 -3 -15 -5 -3 -9 1 -9 9 0 17 3 19 12 6z m-1601 -39 c3 -5 -1 -9 -9
-9 -8 0 -12 4 -9 9 3 4 7 8 9 8 2 0 6 -4 9 -8z m246 2 c0 -8 -19 -13 -24 -6
-3 5 1 9 9 9 8 0 15 -2 15 -3z m240 0 c0 -8 -19 -13 -24 -6 -3 5 1 9 9 9 8 0
15 -2 15 -3z m890 0 c0 -8 -19 -13 -24 -6 -3 5 1 9 9 9 8 0 15 -2 15 -3z"/>
<path d="M5645 8000 c-3 -6 1 -7 9 -4 18 7 21 14 7 14 -6 0 -13 -4 -16 -10z"/>
<path d="M4344 6962 c-13 -8 -12 -190 0 -211 6 -9 5 -12 -1 -8 -12 7 -12 -77
-1 -89 5 -4 3 -13 -3 -21 -9 -10 -8 -13 2 -13 10 0 10 -3 3 -8 -14 -9 -13 -84
1 -94 6 -5 6 -8 -1 -8 -13 0 -13 -218 0 -239 6 -9 5 -12 -1 -8 -12 8 -11 -232
1 -252 6 -9 5 -12 0 -8 -8 4 -12 -386 -5 -425 1 -8 26 -9 106 -6 6 0 17 -1 25
-3 8 -2 14 1 15 6 0 6 4 15 8 22 4 7 0 16 -10 22 -10 6 -12 11 -5 11 15 0 17
60 1 60 -6 0 -3 7 6 16 15 15 15 18 -2 37 -10 11 -12 17 -4 12 10 -6 12 2 10
39 -2 25 -1 46 4 46 4 0 3 8 -2 18 -5 10 -6 24 -2 31 11 18 1 53 -18 68 -14
10 -14 11 4 10 15 -2 19 3 17 18 -2 11 -9 23 -15 27 -8 5 -7 8 3 8 13 0 15 10
10 60 -3 34 -4 63 -2 65 3 2 5 28 4 57 0 39 -4 52 -14 50 -10 -3 -11 -1 0 9
15 16 17 73 1 63 -6 -3 -4 5 5 18 9 14 13 27 10 31 -9 9 -10 107 -1 107 4 0 3
8 -2 18 -5 10 -6 24 -2 31 5 7 5 28 1 47 -4 19 -4 34 1 34 5 0 4 11 -1 24 -5
13 -6 26 -3 29 6 7 4 299 -2 306 -3 2 -12 -2 -22 -10 -9 -8 -14 -9 -10 -3 8
13 -90 18 -109 6z m60 -1080 c3 -5 -1 -9 -9 -9 -8 0 -12 4 -9 9 3 4 7 8 9 8 2
0 6 -4 9 -8z"/>
<path d="M3240 6373 c0 -5 -21 -7 -46 -5 l-45 4 4 -41 c2 -26 0 -41 -7 -41 -6
0 -2 -7 8 -15 13 -10 15 -15 6 -15 -7 0 -10 -3 -7 -6 3 -4 2 -15 -3 -25 -6
-10 -6 -20 -2 -23 5 -3 8 -15 7 -28 -1 -13 3 -29 9 -37 8 -11 8 -13 0 -8 -9 5
-12 -10 -13 -48 0 -37 4 -55 12 -55 8 0 8 -3 2 -8 -15 -10 -16 -234 -1 -225 8
5 8 3 0 -8 -15 -19 -24 -58 -15 -64 4 -2 7 -14 6 -27 -1 -13 3 -29 9 -37 8
-11 8 -13 -1 -8 -16 10 -15 -101 1 -122 8 -11 8 -13 0 -8 -7 4 -11 -13 -11
-53 0 -34 4 -57 9 -54 5 4 4 -4 -4 -15 -11 -18 -11 -23 2 -31 9 -6 10 -10 3
-10 -15 0 -14 -60 1 -79 9 -12 8 -13 -3 -7 -9 6 -12 5 -9 -5 3 -8 1 -24 -3
-36 -6 -17 -4 -25 9 -32 9 -6 12 -11 7 -11 -6 0 -11 -23 -12 -50 -2 -38 1 -49
10 -43 7 4 7 1 -2 -10 -11 -14 -11 -20 0 -34 8 -9 9 -14 2 -10 -8 5 -11 -10
-11 -53 1 -33 5 -63 10 -66 5 -4 5 -10 -1 -17 -8 -10 -16 -63 -12 -77 7 -22 4
-197 -3 -193 -5 4 -6 0 -1 -7 12 -19 12 -190 0 -191 -5 0 -1 -4 10 -9 11 -5
14 -9 7 -9 -8 -1 -12 -10 -11 -23 2 -13 0 -28 -4 -35 -4 -6 -3 -14 2 -18 7 -3
7 -15 1 -30 -5 -13 -6 -27 -1 -29 4 -3 7 -24 5 -48 -1 -23 3 -49 9 -57 10 -12
9 -13 -2 -6 -11 6 -13 2 -9 -19 3 -14 1 -26 -4 -26 -5 0 -6 -6 -1 -12 4 -7 8
-20 8 -28 0 -8 4 -21 9 -29 6 -9 5 -12 -2 -7 -7 4 -10 -19 -9 -79 1 -47 -2
-85 -7 -85 -5 0 -4 -6 1 -12 5 -7 9 -48 7 -91 -1 -56 1 -75 9 -71 8 5 7 2 0
-7 -7 -7 -13 -23 -13 -36 0 -13 6 -23 13 -23 7 0 8 -3 2 -8 -15 -11 -17 -74
-2 -66 8 5 8 3 0 -7 -15 -15 -17 -43 -3 -34 6 3 7 -1 4 -9 -3 -9 -11 -16 -16
-16 -6 0 -7 -5 -2 -12 8 -11 8 -32 3 -123 -1 -17 7 -44 14 -51 4 -4 3 -12 -2
-18 -9 -10 -15 -59 -11 -81 1 -5 2 -47 2 -93 0 -59 3 -81 11 -76 7 3 3 -2 -7
-10 -11 -9 -16 -16 -10 -16 5 0 9 -36 9 -79 0 -45 -4 -77 -9 -74 -5 4 -6 0 -1
-7 5 -7 9 -43 9 -79 1 -36 5 -72 10 -80 6 -9 5 -12 0 -8 -6 3 -10 -16 -12 -44
-1 -33 3 -49 11 -49 8 0 8 -3 1 -8 -13 -9 -13 -52 1 -52 5 0 4 -4 -4 -9 -8 -5
-12 -18 -8 -30 3 -12 1 -21 -5 -21 -5 0 -6 -6 -1 -12 4 -7 6 -20 5 -29 -2 -13
7 -18 43 -21 25 -2 45 -1 45 2 0 3 16 4 35 2 34 -4 34 -4 33 34 0 22 -6 45
-12 53 -8 11 -8 13 1 8 15 -9 13 54 -2 65 -6 5 -5 8 4 8 11 0 11 3 0 17 -8 10
-9 14 -2 10 8 -5 12 4 11 33 0 23 -5 40 -12 40 -8 0 -8 2 0 8 8 5 11 53 10
150 -1 88 3 142 9 143 6 0 1 4 -10 9 -11 5 -14 9 -7 9 15 1 13 42 -3 53 -6 5
-5 8 4 8 11 0 11 3 0 17 -8 10 -9 14 -2 10 8 -5 12 4 11 33 0 23 -5 40 -12 40
-8 0 -8 2 0 8 15 10 15 294 0 304 -8 6 -8 8 0 8 15 0 15 110 0 129 -8 11 -8
13 1 8 9 -6 11 4 9 38 -2 27 1 45 8 46 6 0 2 4 -9 9 -11 5 -15 9 -9 9 15 1 15
101 0 120 -8 12 -8 13 2 7 10 -6 12 3 11 38 -2 25 -8 46 -13 46 -7 0 -7 3 0 8
6 4 11 24 10 45 0 20 4 37 9 38 6 0 1 4 -10 9 -11 5 -15 9 -8 9 14 1 13 97 -1
120 -6 10 -5 12 3 7 9 -6 11 4 10 38 -2 25 -8 46 -13 46 -7 0 -8 3 -1 8 16 11
18 54 3 63 -10 7 -10 9 0 9 6 0 12 9 12 21 0 13 -4 18 -12 13 -10 -6 -10 -5
-2 7 7 8 11 47 10 96 0 44 3 79 7 76 5 -3 5 3 0 13 -5 11 -8 68 -6 129 1 73
-2 114 -10 124 -9 12 -9 13 0 7 16 -9 15 42 -1 63 -8 11 -8 13 2 7 8 -5 12 2
12 24 0 26 -3 31 -17 26 -17 -6 -17 -5 -1 8 15 11 17 26 15 84 -1 42 2 74 8
76 6 3 6 5 -1 5 -11 1 -10 53 1 72 4 5 -2 9 -12 9 -10 0 -14 3 -8 8 11 7 18
41 15 72 -1 8 -1 46 -1 84 1 38 -4 75 -10 82 -7 8 -7 14 1 19 8 5 7 11 -2 23
-7 9 -8 13 -2 9 9 -5 11 33 10 143 0 94 3 150 9 151 6 0 1 4 -10 9 -11 5 -15
9 -9 9 8 1 11 47 10 151 -1 94 3 150 9 151 6 0 1 4 -10 9 -11 5 -15 9 -9 9 8
1 11 39 11 117 0 104 -2 115 -17 111 -10 -2 -25 0 -34 5 -9 5 -16 5 -16 1z
m50 -87 c0 -2 -7 -7 -16 -10 -8 -3 -12 -2 -9 4 6 10 25 14 25 6z m-85 -125 c3
-5 2 -12 -3 -15 -5 -3 -9 1 -9 9 0 17 3 19 12 6z m55 -117 c0 -8 -19 -13 -24
-6 -3 5 1 9 9 9 8 0 15 -2 15 -3z m-15 -523 c3 -5 2 -12 -3 -15 -5 -3 -9 1 -9
9 0 17 3 19 12 6z m2 -276 c0 -8 -4 -12 -9 -9 -5 3 -6 10 -3 15 9 13 12 11 12
-6z m-36 -402 c13 -16 12 -17 -3 -4 -17 13 -22 21 -14 21 2 0 10 -8 17 -17z
m33 -481 c3 -5 -1 -9 -9 -9 -8 0 -12 4 -9 9 3 4 7 8 9 8 2 0 6 -4 9 -8z m16
-158 c0 -8 -19 -13 -24 -6 -3 5 1 9 9 9 8 0 15 -2 15 -3z m0 -320 c0 -8 -19
-13 -24 -6 -3 5 1 9 9 9 8 0 15 -2 15 -3z m-15 -433 c3 -5 2 -12 -3 -15 -5 -3
-9 1 -9 9 0 17 3 19 12 6z m-4 -344 c-10 -9 -11 -8 -5 6 3 10 9 15 12 12 3 -3
0 -11 -7 -18z m-40 -80 c-10 -9 -11 -8 -5 6 3 10 9 15 12 12 3 -3 0 -11 -7
-18z m44 -56 c3 -5 2 -12 -3 -15 -5 -3 -9 1 -9 9 0 17 3 19 12 6z m-4 -344
c-10 -9 -11 -8 -5 6 3 10 9 15 12 12 3 -3 0 -11 -7 -18z"/>
<path d="M5587 6373 c-5 -4 -23 -6 -42 -5 l-33 3 2 -70 c1 -39 -2 -71 -7 -71
-4 0 -5 -5 -1 -12 9 -14 7 -455 -1 -469 -4 -5 -3 -9 2 -9 4 0 8 -34 8 -75 0
-41 -4 -75 -8 -75 -5 0 -5 -5 -1 -12 9 -14 7 -455 -1 -469 -4 -5 -3 -9 2 -9 4
0 8 -77 8 -170 0 -94 -4 -170 -8 -170 -5 0 -5 -5 -1 -12 5 -7 7 -25 6 -41 -2
-16 3 -36 9 -43 10 -12 8 -13 -6 -8 -13 5 -16 4 -11 -5 10 -16 13 -91 4 -91
-4 0 -5 -7 -2 -15 4 -8 11 -12 18 -8 8 5 8 3 -1 -8 -8 -10 -11 -73 -10 -212 1
-108 -2 -197 -6 -197 -5 0 -5 -5 -1 -12 5 -7 7 -25 6 -41 -2 -16 3 -36 9 -43
10 -12 8 -13 -6 -8 -13 5 -16 4 -11 -5 10 -16 13 -91 4 -91 -4 0 -5 -7 -2 -15
4 -8 11 -12 18 -8 8 5 8 3 -1 -8 -7 -8 -11 -51 -11 -104 0 -53 4 -96 11 -104
9 -12 9 -13 0 -7 -10 5 -13 -7 -13 -48 0 -38 4 -56 13 -56 9 0 9 -2 0 -8 -9
-5 -12 -42 -10 -125 1 -64 -2 -117 -6 -117 -5 0 -5 -5 -1 -12 5 -7 7 -25 6
-41 -2 -16 3 -36 9 -43 9 -12 9 -13 -3 -9 -12 5 -14 0 -11 -19 3 -16 10 -23
17 -19 6 3 2 -3 -8 -15 -11 -12 -15 -22 -10 -22 5 0 8 -119 7 -282 -1 -201 2
-287 10 -297 9 -11 9 -13 1 -8 -9 5 -12 -14 -12 -66 1 -39 3 -66 5 -60 3 9 10
10 23 3 13 -7 21 -7 25 0 3 5 1 10 -6 10 -7 0 -9 3 -6 6 4 4 13 1 22 -6 9 -7
18 -10 22 -7 3 4 12 2 19 -4 8 -7 14 -7 19 1 5 7 11 8 19 1 10 -8 12 10 12 82
-1 51 -5 98 -9 105 -5 6 -4 12 1 12 13 0 12 52 0 68 -6 6 -6 12 -1 12 11 0 11
410 0 428 -5 6 -4 12 0 12 5 0 9 81 9 179 0 111 -4 177 -10 174 -5 -4 -6 -1 0
8 12 19 12 89 -1 89 -6 0 -6 3 1 8 15 10 14 584 0 594 -8 5 -7 8 1 8 15 0 13
70 -2 70 -6 0 -6 3 1 8 15 10 14 544 0 554 -8 5 -7 8 1 8 15 0 13 70 -2 70 -5
0 -4 4 3 9 14 9 13 86 -2 110 -6 9 -5 12 1 8 13 -8 12 81 -1 102 -6 9 -5 12 1
8 9 -6 12 117 3 148 -1 6 -1 12 0 15 9 17 5 267 -4 279 -8 11 -8 13 1 7 14 -8
13 50 -1 73 -6 9 -5 12 1 8 13 -8 12 81 -1 102 -6 9 -5 12 1 8 9 -6 12 116 3
148 -1 6 -1 12 0 15 8 15 5 328 -3 344 -5 11 -5 16 0 13 6 -4 10 7 11 23 1 25
-3 30 -24 30 -13 0 -24 -5 -24 -12 0 -6 -6 -4 -13 6 -7 9 -16 14 -20 9z m61
-1638 c-3 -3 -9 2 -12 12 -6 14 -5 15 5 6 7 -7 10 -15 7 -18z m-84 -21 c3 -8
2 -12 -4 -9 -6 3 -10 10 -10 16 0 14 7 11 14 -7z m84 -619 c-3 -3 -9 2 -12 12
-6 14 -5 15 5 6 7 -7 10 -15 7 -18z m-84 -21 c3 -8 2 -12 -4 -9 -6 3 -10 10
-10 16 0 14 7 11 14 -7z m46 -668 c0 -3 -4 -8 -10 -11 -5 -3 -10 -1 -10 4 0 6
5 11 10 11 6 0 10 -2 10 -4z m-46 -132 c3 -8 2 -12 -4 -9 -6 3 -10 10 -10 16
0 14 7 11 14 -7z m84 -539 c-3 -3 -9 2 -12 12 -6 14 -5 15 5 6 7 -7 10 -15 7
-18z"/>
<path d="M5110 6246 c0 -2 7 -7 16 -10 8 -3 12 -2 9 4 -6 10 -25 14 -25 6z"/>
<path d="M3355 6080 c3 -5 8 -10 11 -10 2 0 4 5 4 10 0 6 -5 10 -11 10 -5 0
-7 -4 -4 -10z"/>
<path d="M3350 5766 c0 -2 7 -7 16 -10 8 -3 12 -2 9 4 -6 10 -25 14 -25 6z"/>
<path d="M1910 5286 c0 -2 7 -7 16 -10 8 -3 12 -2 9 4 -6 10 -25 14 -25 6z"/>
<path d="M3795 5139 c4 -5 2 -9 -3 -9 -6 0 -10 -290 -10 -739 0 -407 -4 -745
-8 -752 -4 -7 -3 -9 4 -5 6 3 13 2 16 -3 3 -5 15 -7 27 -4 12 4 25 0 30 -8 6
-10 9 -10 9 -2 0 9 18 12 60 11 32 -1 62 1 66 4 4 4 7 147 7 318 0 222 3 310
11 310 8 0 8 2 0 8 -9 5 -12 71 -11 226 0 199 2 216 15 190 8 -16 18 -31 21
-34 3 -3 17 -25 30 -50 13 -25 40 -72 60 -105 19 -33 36 -65 37 -72 1 -7 12
-26 23 -42 12 -16 21 -34 21 -40 0 -6 4 -11 8 -11 4 0 16 -20 26 -45 11 -25
22 -45 26 -45 3 0 14 -18 24 -40 10 -23 25 -40 34 -41 9 0 50 0 91 1 58 1 71
-1 65 -12 -4 -7 2 -5 13 5 16 14 22 15 26 5 3 -7 6 -1 6 15 1 17 6 27 17 27 8
0 13 4 9 9 -3 6 12 38 33 73 21 35 47 80 57 101 37 73 40 77 47 77 5 0 8 7 8
15 0 8 9 23 19 32 11 9 18 20 15 25 -3 4 4 21 15 37 12 16 21 34 21 40 0 6 5
11 11 11 5 0 7 5 4 10 -3 6 -1 10 4 10 6 0 11 6 11 13 0 6 6 20 14 29 11 15
13 10 14 -35 0 -28 -4 -58 -11 -66 -9 -11 -9 -13 0 -8 16 10 15 -92 -1 -112
-8 -11 -8 -13 1 -8 16 10 15 -92 -1 -112 -8 -11 -8 -13 2 -7 9 5 12 -2 12 -26
0 -19 -6 -40 -12 -47 -9 -10 -9 -12 -1 -7 16 9 15 -93 -1 -113 -8 -11 -8 -13
1 -8 16 10 15 -92 -1 -112 -8 -11 -8 -13 2 -7 19 12 15 -54 -5 -78 -16 -18
-16 -19 -1 -8 15 12 17 9 16 -40 0 -29 -6 -59 -12 -67 -8 -11 -8 -13 1 -8 16
10 15 -92 -1 -112 -8 -11 -8 -13 2 -7 8 5 12 0 12 -16 0 -13 -6 -30 -12 -37
-7 -7 -8 -12 -3 -11 6 2 34 2 63 1 40 -1 51 -4 46 -13 -6 -10 -5 -10 7 -1 8 6
31 10 52 9 21 -2 41 2 45 8 11 17 10 1490 -1 1497 -5 4 -49 7 -98 8 -98 2
-103 0 -132 -59 -36 -71 -54 -99 -62 -92 -5 4 -5 -1 -2 -10 3 -9 -3 -27 -14
-41 -10 -14 -19 -30 -19 -37 0 -6 -5 -8 -12 -4 -7 5 -8 3 -4 -5 5 -7 1 -20 -7
-29 -8 -9 -27 -40 -42 -69 -15 -29 -32 -50 -38 -46 -6 3 -7 1 -3 -6 7 -10 -21
-68 -97 -201 -11 -19 -31 -56 -45 -82 -14 -27 -28 -48 -32 -48 -4 0 -15 16
-26 35 -10 19 -22 35 -26 35 -5 0 -8 9 -8 20 0 11 -3 20 -7 20 -5 0 -21 26
-38 58 -16 31 -32 59 -35 62 -6 6 -46 80 -69 128 -8 17 -19 32 -24 32 -4 0 -5
5 -2 10 3 6 2 10 -4 10 -10 0 -27 38 -23 53 1 4 -2 7 -8 7 -5 0 -17 17 -25 37
-9 21 -19 40 -23 43 -4 3 -13 16 -20 30 -11 21 -29 54 -77 132 -8 13 -27 18
-73 19 -34 1 -65 -1 -68 -4 -3 -3 -19 -1 -35 3 -18 5 -27 5 -24 -1z"/>
<path d="M4335 3117 c1 -62 5 -119 10 -126 5 -9 4 -12 -3 -8 -12 8 -10 -102 3
-123 5 -8 4 -11 -2 -7 -13 8 -12 -81 1 -102 6 -9 5 -12 -1 -8 -12 8 -11 -112
1 -132 6 -9 5 -12 0 -8 -6 3 -10 -27 -10 -73 0 -45 4 -77 9 -73 5 3 5 -2 0
-13 -12 -24 -11 -154 1 -173 6 -9 5 -12 -1 -8 -12 7 -12 -72 0 -90 4 -6 2 -15
-4 -19 -8 -4 -7 -9 2 -15 8 -5 9 -9 3 -9 -13 0 -12 -78 1 -100 5 -8 4 -11 -2
-7 -13 8 -11 -152 1 -172 6 -10 5 -12 -2 -7 -7 4 -12 3 -12 -3 0 -19 19 -21
29 -4 6 10 11 13 11 6 0 -12 100 -23 100 -10 0 5 5 5 10 2 6 -4 10 7 10 25 0
22 -4 29 -12 24 -7 -4 -4 2 6 14 19 22 19 22 0 22 -13 0 -15 3 -7 8 7 5 12 32
11 72 0 36 1 70 2 75 1 6 1 15 0 20 -2 14 -3 88 0 100 1 6 1 15 0 20 -1 6 -1
27 0 48 1 21 -4 45 -11 53 -10 12 -9 13 5 8 12 -5 15 -2 10 10 -3 9 -10 16
-16 16 -5 0 -2 7 7 16 15 15 15 18 -2 37 -10 11 -13 17 -6 13 9 -5 12 10 11
61 0 37 1 73 2 78 1 6 1 15 0 20 -2 14 -3 88 0 100 1 6 1 15 0 20 -1 6 -1 27
0 48 1 21 -4 45 -11 53 -10 12 -9 13 5 8 12 -5 15 -2 10 10 -3 9 -10 16 -16
16 -5 0 -2 8 7 17 16 16 16 17 -1 30 -10 7 -13 13 -6 13 8 0 11 50 11 170 l1
170 -78 0 -78 0 1 -113z m109 -163 c3 -8 2 -12 -4 -9 -6 3 -10 10 -10 16 0 14
7 11 14 -7z m-34 -270 c0 -8 -19 -13 -24 -6 -3 5 1 9 9 9 8 0 15 -2 15 -3z
m40 -118 c0 -3 -4 -8 -10 -11 -5 -3 -10 -1 -10 4 0 6 5 11 10 11 6 0 10 -2 10
-4z m4 -524 c3 -5 -1 -9 -9 -9 -8 0 -12 4 -9 9 3 4 7 8 9 8 2 0 6 -4 9 -8z
m-10 -48 c3 -8 2 -12 -4 -9 -6 3 -10 10 -10 16 0 14 7 11 14 -7z"/>
<path d="M1667 3099 c7 -7 15 -10 18 -7 3 3 -2 9 -12 12 -14 6 -15 5 -6 -5z"/>
<path d="M5755 2409 c-4 -6 -5 -12 -2 -15 2 -3 7 2 10 11 7 17 1 20 -8 4z"/>
<path d="M1885 2160 c3 -5 8 -10 11 -10 2 0 4 5 4 10 0 6 -5 10 -11 10 -5 0
-7 -4 -4 -10z"/>
</g>
</svg>
